<svg xmlns="http://www.w3.org/2000/svg" xmlns:xlink="http://www.w3.org/1999/xlink"><defs>
<clipPath id="clip0_11_289">
<rect width="51.8506" height="50.5145" fill="white"/>
</clipPath>

<clipPath id="clip0_11_90">
<rect width="20.962" height="18.4384" fill="white"/>
</clipPath>

<clipPath id="clip0_11_57">
<rect width="20.9771" height="18.5201" fill="white"/>
</clipPath>

<clipPath id="clip0_11_76">
<rect width="21" height="21" fill="white"/>
</clipPath>

<clipPath id="clip0_11_31">
<rect width="10.8008" height="15.2084" fill="white" transform="translate(3.57916) rotate(13.6118)"/>
</clipPath>

<clipPath id="clip0_11_95">
<rect width="20.9325" height="20.3981" fill="white"/>
</clipPath>

<clipPath id="clip0_11_100">
<rect width="20.9548" height="20.6767" fill="white"/>
</clipPath>

<clipPath id="clip0_11_110">
<rect width="20.9008" height="18.5197" fill="white"/>
</clipPath>

<clipPath id="clip0_11_63">
<rect width="20.9567" height="18.4762" fill="white"/>
</clipPath>

<clipPath id="clip0_11_83">
<rect width="20.9416" height="18.438" fill="white"/>
</clipPath>
</defs><symbol id="icon-alert" viewBox="0 0 52 51">
<g clip-path="url(#clip0_11_289)">
<path fill-rule="evenodd" clip-rule="evenodd" d="M25.9253 0.944702C39.7224 0.944702 50.9059 11.8313 50.9059 25.2595C50.9059 38.6878 39.7224 49.5743 25.9253 49.5743C12.1282 49.5743 0.944702 38.6878 0.944702 25.2595C0.944702 11.8313 12.1282 0.944702 25.9253 0.944702V0.944702Z" stroke="#6666D2" stroke-width="1.8894" stroke-miterlimit="22.9256"/>
<path d="M23.6895 27.3918H27.9092V12.8434H23.6895V27.3918ZM28.8269 29.2272H22.7718C22.2635 29.2272 21.8541 28.8179 21.8541 28.3095V11.9302C21.8541 11.4219 22.2635 11.0125 22.7718 11.0125H28.8269C29.3353 11.0125 29.7446 11.4219 29.7446 11.9302V28.3095C29.7446 28.8179 29.3353 29.2272 28.8269 29.2272Z" fill="#6666D2"/>
<path d="M23.6895 38.0894H27.9092V34.4366H23.6895V38.0894ZM28.8269 39.9248H22.7718C22.2635 39.9248 21.8541 39.5155 21.8541 39.0071V33.5189C21.8541 33.0105 22.2635 32.6012 22.7718 32.6012H28.8269C29.3353 32.6012 29.7446 33.0105 29.7446 33.5189V39.0071C29.7446 39.5155 29.3353 39.9248 28.8269 39.9248Z" fill="#6666D2"/>
</g>

</symbol><symbol id="icon-arrow-right" viewBox="0 0 8 9">
<path d="M1 1L6 4.5L1 8" stroke="#656565" stroke-width="1.5" stroke-linecap="round"/>
</symbol><symbol id="icon-avatar" viewBox="0 0 21 19">
<g clip-path="url(#clip0_11_90)">
<path fill-rule="evenodd" clip-rule="evenodd" d="M10.5147 0.471069C12.8699 0.471069 14.771 2.37211 14.771 4.72738C14.771 7.08266 12.8699 8.9837 10.5147 8.9837C8.15938 8.9837 6.25834 7.08266 6.25834 4.72738C6.25834 2.37211 8.15938 0.471069 10.5147 0.471069V0.471069Z" stroke="#7A7B7B" stroke-width="0.942109" stroke-miterlimit="22.9256"/>
<path fill-rule="evenodd" clip-rule="evenodd" d="M10.481 17.9674H0.471096C0.471096 11.2885 5.88822 9.89215 10.481 9.89215C16.0159 9.89215 20.4909 11.7932 20.4909 17.9674H10.481V17.9674Z" stroke="#7A7B7B" stroke-width="0.942109" stroke-miterlimit="22.9256"/>
</g>

</symbol><symbol id="icon-cancel" viewBox="0 0 13 14">
<path d="M1.00005 1.23053L12.1428 12.7694" stroke="white" stroke-linecap="round"/>
<path d="M12.1429 1.2403L1.00911 12.7694" stroke="white" stroke-linecap="round"/>
</symbol><symbol id="icon-cart" viewBox="0 0 21 19">
<g clip-path="url(#clip0_11_57)">
<path d="M5.90057 12.2011L3.53094 13.848V15.4782H19.9671M0.220184 0.403336L2.90912 1.88225L3.39649 3.57964L5.88376 12.2011H18.2361C19.0259 12.2011 21.2947 5.49551 20.2024 5.37787L3.699 3.57964" stroke="#6666CC" stroke-width="0.941128" stroke-miterlimit="22.9256"/>
<path fill-rule="evenodd" clip-rule="evenodd" d="M7.16101 15.3605C8.01811 15.3605 8.70715 16.0664 8.70715 16.9403C8.70715 17.8142 8.01811 18.5201 7.16101 18.5201C6.30391 18.5201 5.61487 17.8142 5.61487 16.9403C5.61487 16.0664 6.30391 15.3605 7.16101 15.3605Z" fill="#6666CC"/>
<path fill-rule="evenodd" clip-rule="evenodd" d="M15.6648 15.3438C16.5219 15.3438 17.2109 16.0496 17.2109 16.9235C17.2109 17.7974 16.5219 18.5033 15.6648 18.5033C14.8077 18.5033 14.1186 17.7974 14.1186 16.9235C14.1186 16.0496 14.8077 15.3438 15.6648 15.3438Z" fill="#6666CC"/>
</g>

</symbol><symbol id="icon-close" viewBox="0 0 17 17">
<circle cx="8.5" cy="8.5" r="7.98683" transform="rotate(0.088995 8.5 8.5)" stroke="#656565"/>
<path d="M5.94629 5.94621L10.9408 10.7489" stroke="#656565" stroke-linecap="round"/>
<path d="M10.9409 5.95027L5.95037 10.7489" stroke="#656565" stroke-linecap="round"/>
</symbol><symbol id="icon-diagram" viewBox="0 0 21 21">
<g clip-path="url(#clip0_11_76)">
<path fill-rule="evenodd" clip-rule="evenodd" d="M9.94472 11.0862H19.4181C19.4181 16.2931 15.1778 20.5345 9.94472 20.5345C4.71163 20.5345 0.471319 16.3103 0.471319 11.0862C0.471319 5.8793 4.71163 1.63792 9.94472 1.63792V11.0862V11.0862Z" stroke="#7A7B7B" stroke-width="0.941215" stroke-miterlimit="22.9256"/>
<path fill-rule="evenodd" clip-rule="evenodd" d="M11.9807 9.01724V0.482758C16.709 0.482758 20.5287 4.2931 20.5287 9.01724H11.9807V9.01724Z" stroke="#7A7B7B" stroke-width="0.941215" stroke-miterlimit="22.9256"/>
</g>

</symbol><symbol id="icon-edit" viewBox="0 0 15 18">
<g clip-path="url(#clip0_11_31)">
<path d="M1.66249 11.3433C1.59879 11.4159 1.52503 11.5301 1.49483 11.6548L0.548863 14.4188L0.592421 14.4294L3.48122 13.5443C3.57841 13.5238 3.68566 13.4618 3.80298 13.3581L11.4926 5.97679L9.36222 3.92037L1.67255 11.3017L1.66249 11.3433ZM0.521946 14.7204C0.478388 14.7099 0.43483 14.6993 0.357783 14.6367C0.280734 14.574 0.257312 14.4803 0.287516 14.3556L1.18992 11.581C1.22012 11.4563 1.29389 11.3421 1.36765 11.2279L1.37772 11.1863L9.1847 3.70132C9.23833 3.67029 9.33551 3.6498 9.369 3.70193L11.687 5.93583C11.7205 5.98795 11.7439 6.08166 11.6903 6.11269L3.82969 13.6287C3.82969 13.6287 3.81962 13.6703 3.77606 13.6597C3.66881 13.7218 3.56156 13.7839 3.41075 13.8354L0.521946 14.7204C0.46832 14.7515 0.424762 14.7409 0.381205 14.7304L0.521946 14.7204Z" fill="white"/>
<path d="M1.66249 11.3433C1.59879 11.4159 1.52503 11.5301 1.49483 11.6548L0.548863 14.4188L0.592421 14.4294L3.48122 13.5443C3.57841 13.5238 3.68566 13.4618 3.80298 13.3581L11.4926 5.97679L9.36222 3.92037L1.67255 11.3017L1.66249 11.3433ZM0.521946 14.7204C0.478388 14.7099 0.43483 14.6993 0.357782 14.6367C0.280734 14.574 0.257312 14.4803 0.287516 14.3556L1.18992 11.581C1.22012 11.4563 1.29389 11.3421 1.36765 11.2279L1.37772 11.1863L9.1847 3.70132C9.23833 3.67029 9.33551 3.6498 9.369 3.70193L11.687 5.93583C11.7205 5.98795 11.7439 6.08166 11.6903 6.11269L3.82969 13.6287C3.82969 13.6287 3.81962 13.6703 3.77606 13.6597C3.66881 13.7218 3.56156 13.7839 3.41075 13.8354L0.521946 14.7204C0.46832 14.7515 0.424763 14.7409 0.381205 14.7304L0.521946 14.7204Z" stroke="white" stroke-width="0.363997" stroke-miterlimit="2.613" stroke-linecap="round" stroke-linejoin="round"/>
<path d="M10.2371 3.16384L12.3675 5.22027L12.9742 4.61891C13.2625 4.3806 13.2325 3.93318 12.9779 3.65146L11.8524 2.58664C11.7419 2.47184 11.6548 2.45074 11.5241 2.4191C11.2627 2.35582 11.0147 2.42782 10.8337 2.60407L10.227 3.20542L10.2371 3.16384ZM12.3506 5.48029C12.3071 5.46974 12.3071 5.46974 12.3071 5.46974L9.98906 3.23584C9.95557 3.18371 9.93215 3.09001 9.98578 3.05898L10.6998 2.39556C10.9344 2.18828 11.2796 2.0958 11.5845 2.16963C11.7587 2.21182 11.9229 2.29559 12.0334 2.41039L13.1589 3.47521C13.5341 3.83015 13.5238 4.44389 13.1618 4.79639L12.4478 5.4598C12.3942 5.49083 12.3942 5.49083 12.3506 5.48029Z" fill="white" stroke="white" stroke-width="0.363997" stroke-miterlimit="2.613" stroke-linecap="round" stroke-linejoin="round"/>
<path d="M9.57669 3.79623L11.7071 5.85266L12.1865 5.39653L10.056 3.3401L9.57669 3.79623ZM11.6802 6.15426C11.6366 6.14371 11.6366 6.14371 11.6366 6.14371L9.31863 3.90981C9.28514 3.85769 9.26171 3.76398 9.31534 3.73295L9.9757 3.10057C9.98577 3.05899 10.0293 3.06953 10.0729 3.08008C10.1164 3.09063 10.16 3.10118 10.16 3.10118L12.478 5.33508C12.5216 5.34562 12.5115 5.3872 12.5014 5.42878C12.4914 5.47036 12.4813 5.51194 12.4813 5.51194L11.8209 6.14432C11.8109 6.1859 11.7673 6.17535 11.7238 6.1648C11.7238 6.1648 11.7238 6.1648 11.6802 6.15426Z" fill="white" stroke="white" stroke-width="0.363997" stroke-miterlimit="2.613" stroke-linecap="round" stroke-linejoin="round"/>
<path d="M2.0602 14.0806L2.01664 14.07L0.934683 13.0157C0.901193 12.9636 0.911261 12.922 0.921329 12.8804C0.974954 12.8494 1.01851 12.86 1.06207 12.8705L2.14403 13.9248C2.17752 13.9769 2.16745 14.0185 2.15738 14.0601C2.14731 14.1016 2.10376 14.0911 2.0602 14.0806Z" fill="white" stroke="white" stroke-width="0.363997" stroke-miterlimit="2.613" stroke-linecap="round" stroke-linejoin="round"/>
<path d="M3.77603 13.6597L3.73247 13.6492L1.44795 11.4674C1.41446 11.4153 1.39104 11.3216 1.44466 11.2906C1.49829 11.2595 1.59547 11.239 1.62896 11.2912L3.91348 13.4729C3.94697 13.5251 3.97039 13.6188 3.91677 13.6498C3.86314 13.6808 3.86314 13.6808 3.81958 13.6703L3.77603 13.6597Z" fill="white" stroke="white" stroke-width="0.363997" stroke-miterlimit="2.613" stroke-linecap="round" stroke-linejoin="round"/>
</g>

</symbol><symbol id="icon-faq" viewBox="0 0 21 21">
<g clip-path="url(#clip0_11_95)">
<path d="M9.64951 13.9797H11.0473V15.4448H9.64951V13.9797ZM7.27502 8.33818C7.27502 7.32776 7.56131 6.50259 8.13388 5.8795C8.70645 5.2564 9.49795 4.95328 10.4915 4.95328C11.4177 4.95328 12.1587 5.22272 12.7145 5.74477C13.2702 6.26682 13.5565 6.95728 13.5565 7.76561C13.5565 8.27082 13.4554 8.67499 13.2533 8.97812C13.0513 9.28124 12.6302 9.75277 12.024 10.3422C11.5693 10.78 11.283 11.1505 11.1483 11.4536C11.0136 11.7568 10.9462 12.2115 10.9462 12.8009H9.68319C9.68319 12.1273 9.76739 11.5884 9.91896 11.1842C10.0705 10.78 10.4242 10.3085 10.9631 9.76961L11.5356 9.21388C11.704 9.06232 11.8388 8.89392 11.9398 8.70867C12.125 8.40555 12.2261 8.08558 12.2261 7.76561C12.2261 7.31092 12.0914 6.90676 11.8051 6.56995C11.5356 6.23314 11.0809 6.06474 10.441 6.06474C9.64951 6.06474 9.11062 6.35103 8.80749 6.94044C8.63909 7.2604 8.53805 7.73193 8.52121 8.33818H7.25818H7.27502Z" fill="#7A7B7B"/>
<path fill-rule="evenodd" clip-rule="evenodd" d="M10.4747 0.473755C15.9983 0.473755 20.4778 4.8354 20.4778 10.2075C20.4778 15.5795 15.9983 19.9412 10.4747 19.9412C4.95106 19.9412 0.471529 15.5795 0.471529 10.2075C0.471529 4.8354 4.95106 0.473755 10.4747 0.473755V0.473755Z" stroke="#7A7B7B" stroke-width="0.943059" stroke-miterlimit="22.9256"/>
</g>

</symbol><symbol id="icon-headphone" viewBox="0 0 21 21">
<g clip-path="url(#clip0_11_100)">
<path d="M17.9277 9.10222C17.6418 9.10222 17.4063 8.93404 17.4063 8.71541V5.77232C17.3895 -0.769761 3.44763 -0.70249 3.46444 5.77232V8.71541C3.46444 8.91722 3.229 9.10222 2.9431 9.10222C2.65719 9.10222 2.42175 8.93404 2.42175 8.71541V5.77232C2.42175 -1.947 18.3481 -1.93018 18.3481 5.77232V8.71541C18.3817 8.91722 18.1463 9.10222 17.9108 9.10222H17.9277Z" fill="#7A7B7B"/>
<path d="M4.22124 16.2161H3.229C1.4295 16.2161 0 14.7866 0 12.9871V11.4735C0 9.67401 1.4295 8.24451 3.229 8.24451H4.22124C4.62486 8.24451 4.97803 8.56404 4.97803 9.0013C4.97803 9.2872 4.74259 9.52265 4.45669 9.52265C4.25487 9.52265 4.10352 9.40493 4.01943 9.2872H3.229C2.0013 9.2872 0.992243 10.2794 0.992243 11.524V13.0375C0.992243 14.2652 1.98449 15.2743 3.229 15.2743H4.01943C4.10352 15.1229 4.25487 15.0389 4.45669 15.0389C4.74259 15.0389 4.97803 15.2743 4.97803 15.5602C4.97803 15.8797 4.62486 16.2329 4.22124 16.2329V16.2161Z" fill="#7A7B7B"/>
<path d="M4.97803 15.6948H5.97028V8.73224H4.97803V15.6948ZM6.45799 16.687H4.4735C4.1876 16.687 3.95216 16.4516 3.95216 16.1657V8.19408C3.95216 7.90818 4.1876 7.67273 4.4735 7.67273H6.45799C6.74389 7.67273 6.97934 7.90818 6.97934 8.19408V16.1657C6.97934 16.4516 6.74389 16.687 6.45799 16.687Z" fill="#7A7B7B"/>
<path d="M17.7258 16.2161H16.7336C16.33 16.2161 15.9768 15.8966 15.9768 15.4593C15.9768 15.1734 16.2122 14.938 16.4981 14.938C16.7 14.938 16.8513 15.0557 16.9354 15.1734H17.7258C18.9535 15.1734 19.9626 14.1812 19.9626 12.9367V11.4231C19.9626 10.1954 18.9703 9.18631 17.7258 9.18631H16.9354C16.8513 9.33767 16.7 9.42176 16.4981 9.42176C16.2122 9.42176 15.9768 9.18631 15.9768 8.90041C15.9768 8.49679 16.2963 8.14362 16.7336 8.14362H17.7258C19.5253 8.14362 20.9548 9.57312 20.9548 11.3726V12.8862C20.9885 14.7193 19.5253 16.1993 17.7258 16.1993V16.2161Z" fill="#7A7B7B"/>
<path d="M14.9341 15.6948H15.9263V8.73224H14.9341V15.6948ZM16.4141 16.687H14.4296C14.1437 16.687 13.9082 16.4516 13.9082 16.1657V8.19408C13.9082 7.90818 14.1437 7.67273 14.4296 7.67273H16.4141C16.7 7.67273 16.9354 7.90818 16.9354 8.19408V16.1657C16.9354 16.4516 16.7 16.687 16.4141 16.687Z" fill="#7A7B7B"/>
<path d="M16.969 19.6805H9.95607C9.67017 19.6805 9.43472 19.4451 9.43472 19.1592C9.43472 18.8733 9.67017 18.6378 9.95607 18.6378H16.969C17.4904 18.6378 17.9277 18.2006 17.9277 17.6792V15.6947C17.9277 15.4088 18.1631 15.1734 18.449 15.1734C18.7349 15.1734 18.9703 15.4088 18.9703 15.6947V17.7297C18.9367 18.806 18.0622 19.6805 16.9859 19.6805H16.969Z" fill="#7A7B7B"/>
<path d="M9.19927 18.6883C9.08155 18.6883 8.96382 18.806 8.96382 18.9237V19.4451C8.96382 19.5628 9.08155 19.6805 9.19927 19.6805C9.317 19.6805 9.43472 19.5628 9.43472 19.4451V18.9237C9.43472 18.8396 9.40108 18.7724 9.35063 18.7724C9.317 18.7387 9.23291 18.6883 9.19927 18.6883ZM9.19927 20.6728C8.52656 20.6728 7.97158 20.1178 7.97158 19.4451V18.9237C7.97158 18.251 8.52656 17.696 9.19927 17.696C9.51881 17.696 9.83834 17.8138 10.0738 18.0492C10.3092 18.2847 10.427 18.6042 10.427 18.9237V19.4451C10.427 20.1178 9.87198 20.6728 9.19927 20.6728Z" fill="#7A7B7B"/>
</g>

</symbol><symbol id="icon-house" viewBox="0 0 21 19">
<path d="M16.9921 17.9893C17.3454 17.9893 17.6315 17.7033 17.6315 17.35V10.4353H19.3307C19.9532 10.4353 20.4579 9.93063 20.4579 9.30815C20.4579 8.95485 20.2896 8.63519 20.0373 8.4333C14.9565 4.02544 15.3939 4.41239 11.1879 0.761603C10.7673 0.391477 10.1448 0.391477 9.72422 0.761603L0.841196 8.46695C0.487894 8.76978 0.353303 9.2745 0.521542 9.71192C0.689781 10.1493 1.11038 10.4353 1.58145 10.4353H3.28066V17.35C3.28066 17.7033 3.56667 17.9893 3.93679 17.9893H7.75582V12.9589C7.75582 12.2523 8.32783 11.6635 9.03444 11.6635H11.8609C12.5675 11.6635 13.1563 12.2355 13.1563 12.9589V17.9893H16.9753H16.9921Z" stroke="#7A7B7B" stroke-width="0.942139" stroke-miterlimit="10"/>
</symbol><symbol id="icon-logout" viewBox="0 0 21 19">
<g clip-path="url(#clip0_11_110)">
<path d="M13.5623 18.0474H0.473715V0.47226C4.8422 0.47226 9.19382 0.47226 13.5623 0.47226" stroke="#7A7B7B" stroke-width="0.944538" stroke-miterlimit="22.9256"/>
<path d="M6.98428 9.25983H20.2921" stroke="#7A7B7B" stroke-width="0.944538" stroke-miterlimit="22.9256"/>
<path d="M15.2321 4.18295L20.2415 9.25984L15.2827 14.303" stroke="#7A7B7B" stroke-width="0.944538" stroke-miterlimit="22.9256"/>
</g>

</symbol><symbol id="icon-megafon" viewBox="0 0 21 19">
<g clip-path="url(#clip0_11_63)">
<path d="M18.2152 10.8359C17.9629 10.8359 17.7106 10.8023 17.4752 10.735C17.2901 10.6846 17.1556 10.5164 17.1556 10.3482V6.21066C17.1556 6.02565 17.2901 5.87427 17.4752 5.82382C17.7106 5.75654 17.9629 5.7229 18.2152 5.7229C19.7289 5.7229 20.9567 6.86661 20.9567 8.27942C20.9567 9.69223 19.7289 10.8359 18.2152 10.8359ZM18.047 10.0118C18.0975 10.0118 18.1647 10.0118 18.2152 10.0118C19.2412 10.0118 20.0821 9.22129 20.0821 8.2626C20.0821 7.3039 19.2412 6.5134 18.2152 6.5134C18.1479 6.5134 18.0975 6.5134 18.047 6.5134V9.97816V10.0118Z" fill="#7D7D7D"/>
<path d="M16.7351 16.5376H16.4324C15.7091 16.5376 15.1205 15.9826 15.1205 15.3098V1.21535C15.1205 0.542582 15.7091 -0.0124512 16.4324 -0.0124512H16.7351C17.4583 -0.0124512 18.047 0.542582 18.047 1.21535V15.3098C18.047 15.9826 17.4583 16.5376 16.7351 16.5376ZM16.4324 0.81169C16.1969 0.81169 15.9951 0.996701 15.9951 1.21535V15.3098C15.9951 15.5285 16.1969 15.7135 16.4324 15.7135H16.7351C16.9706 15.7135 17.1724 15.5285 17.1724 15.3098V1.21535C17.1724 0.996701 16.9706 0.81169 16.7351 0.81169H16.4324Z" fill="#7D7D7D"/>
<path d="M2.47242 10.6846C2.4556 10.6846 2.43878 10.6846 2.42196 10.6846C1.7492 10.6005 1.07643 10.5668 0.437299 10.5668C0.20183 10.5668 0 10.3818 0 10.1632V6.4293C0 6.21065 0.20183 6.02564 0.437299 6.02564C1.07643 6.02564 1.7492 5.992 2.42196 5.90791C2.5397 5.89109 2.67425 5.92473 2.75835 6.00882C2.85926 6.09292 2.90972 6.19383 2.90972 6.31157V10.2977C2.90972 10.4155 2.85926 10.5332 2.75835 10.6005C2.67425 10.6677 2.57334 10.7014 2.47242 10.7014V10.6846ZM0.857779 9.74268C1.24462 9.7595 1.63146 9.77632 2.03512 9.80996V6.73205C1.63146 6.76569 1.24462 6.79932 0.857779 6.79932V9.72587V9.74268Z" fill="#7D7D7D"/>
<path d="M15.5578 15.7471C15.4737 15.7471 15.3896 15.7303 15.3055 15.6799C12.5976 13.9643 9.7215 12.6188 6.72768 11.6937C6.13901 11.5087 5.49988 11.3405 4.84393 11.1723C4.65892 11.1219 4.47391 11.0882 4.30572 11.0378C3.53203 10.8527 2.87608 10.735 2.42197 10.6677C2.20332 10.6509 2.03512 10.4659 2.03512 10.2641V6.27793C2.03512 6.0761 2.20332 5.89108 2.42197 5.87426C2.99382 5.80699 3.80114 5.6388 4.84393 5.38651C6.67722 4.93239 8.51052 4.31008 10.2765 3.55322C12.0257 2.79635 13.7076 1.90493 15.3055 0.878962C15.44 0.794866 15.6082 0.778047 15.7596 0.862143C15.911 0.92942 15.9951 1.06397 15.9951 1.21535V15.3435C15.9951 15.4948 15.911 15.6294 15.7596 15.6967C15.6923 15.7303 15.625 15.7471 15.5578 15.7471ZM2.90972 9.91087C3.34702 9.97815 3.88524 10.0959 4.50755 10.2473C4.67574 10.2809 4.86075 10.3314 5.04576 10.3818C5.73535 10.55 6.3913 10.735 6.99679 10.92C9.82241 11.7946 12.5471 13.0224 15.1205 14.5866V1.98903C13.6908 2.86363 12.1939 3.63731 10.6466 4.31008C8.83008 5.10058 6.94633 5.72289 5.06258 6.19383C4.18798 6.41248 3.48158 6.56385 2.90972 6.64795V9.92769V9.91087Z" fill="#7D7D7D"/>
<path d="M6.86223 18.4718H4.40663C4.17116 18.4718 3.96933 18.2868 3.96933 18.0682V10.6341C3.96933 10.5164 4.03661 10.3986 4.13752 10.3145C4.23844 10.2304 4.37299 10.2136 4.50755 10.2304C4.69256 10.2641 4.87757 10.3145 5.06258 10.365C5.75217 10.5332 6.40812 10.7182 7.01361 10.9032C7.19862 10.9537 7.31635 11.1219 7.31635 11.29V18.0682C7.31635 18.2868 7.11452 18.4718 6.87905 18.4718H6.86223ZM4.84393 17.6477H6.42494V11.576C5.92036 11.4246 5.39896 11.2732 4.84393 11.1387V17.6309V17.6477Z" fill="#7D7D7D"/>
</g>

</symbol><symbol id="icon-message" viewBox="0 0 24 18">
<path d="M21.3295 0H3.10018C2.05806 0 1.21326 0.844805 1.21326 1.88692V16.1127C1.21326 17.1548 2.05806 17.9996 3.10018 17.9996H21.3295C22.3716 17.9996 23.2164 17.1548 23.2164 16.1127V1.88692C23.2164 0.844805 22.3716 0 21.3295 0Z" fill="#7B7B7B"/>
<path d="M1 4.52862L10.7792 11.6989C11.5176 12.2404 12.7317 12.2404 13.4701 11.6989L23.4298 4.39735" stroke="white" stroke-width="0.75477" stroke-miterlimit="22.9256"/>
</symbol><symbol id="icon-wallet" viewBox="0 0 21 19">
<g clip-path="url(#clip0_11_83)">
<path fill-rule="evenodd" clip-rule="evenodd" d="M2.44094 4.49704H18.4838C19.578 4.49704 20.4534 5.38925 20.4534 6.46663V15.9947C20.4534 17.0889 19.5612 17.9643 18.4838 17.9643H2.44094C1.34673 17.9643 0.471355 17.0721 0.471355 15.9947V6.46663C0.471355 5.37241 1.36356 4.49704 2.44094 4.49704V4.49704Z" stroke="#7D7D7D" stroke-width="0.942709" stroke-miterlimit="22.9256"/>
<path fill-rule="evenodd" clip-rule="evenodd" d="M20.4703 9.47994H16.3122C15.3527 9.47994 14.5615 10.2711 14.5615 11.2307C14.5615 12.2071 15.3527 12.9814 16.3122 12.9814H20.4703V9.4631V9.47994Z" stroke="#7D7D7D" stroke-width="0.942709" stroke-miterlimit="22.9256"/>
<path fill-rule="evenodd" clip-rule="evenodd" d="M16.1776 10.8098C16.4132 10.8098 16.5984 10.995 16.5984 11.2307C16.5984 11.4664 16.4132 11.6515 16.1776 11.6515C15.9419 11.6515 15.7567 11.4664 15.7567 11.2307C15.7567 10.995 15.9419 10.8098 16.1776 10.8098Z" fill="#7D7D7D" stroke="#7D7D7D" stroke-width="0.942709" stroke-miterlimit="22.9256"/>
<path d="M5.16807 4.49705L12.8781 0.608378C13.5346 0.271696 14.3258 0.557876 14.6457 1.24807L16.1607 4.49705" stroke="#7D7D7D" stroke-width="0.942709" stroke-miterlimit="22.9256"/>
</g>

</symbol></svg>